<svg width="512" height="512" viewBox="0 0 512 512" fill="none" xmlns="http://www.w3.org/2000/svg">
<path d="M377.263 104.127C377.263 99.3979 379.745 95.0149 383.803 92.5815L491.593 27.9401C500.574 22.5545 512 29.0192 512 39.486V150.354C512 157.791 505.966 163.819 498.526 163.819H390.737C383.297 163.819 377.263 157.791 377.263 150.354V104.127Z" fill="#DB9A52"/>
<path fill-rule="evenodd" clip-rule="evenodd" d="M188.632 211.854C188.632 207.124 191.114 202.742 195.172 200.308L302.961 135.667C311.943 130.281 323.368 136.746 323.368 147.212V473.535C323.368 480.97 317.335 487 309.895 487H202.105C194.664 487 188.632 480.97 188.632 473.535V211.854ZM6.54085 321.494C2.4829 323.929 0 328.31 0 333.042V473.535C0 480.97 6.03238 487 13.4737 487H121.263C128.704 487 134.737 480.97 134.737 473.535V268.399C134.737 257.932 123.311 251.468 114.33 256.853L6.54085 321.494Z" fill="#DB9A52"/>
<path fill-rule="evenodd" clip-rule="evenodd" d="M134.737 352.345H53.8947V460.067H134.737V433.137C134.737 425.698 140.769 419.671 148.211 419.671H175.158C182.599 419.671 188.632 425.698 188.632 433.137V460.067H296.421V352.345H188.632V379.262C188.632 386.698 182.599 392.728 175.158 392.728H148.211C140.769 392.728 134.737 386.698 134.737 379.262V352.345Z" fill="#DB9A52"/>
<path d="M377.263 204.228V473.532C377.263 480.969 383.296 486.997 390.737 486.997H498.526C505.968 486.997 512 480.969 512 473.532V204.228C512 196.792 505.968 190.763 498.526 190.763H390.737C383.296 190.763 377.263 196.792 377.263 204.228Z" fill="#DB9A52"/>
</svg>
