<svg width="64" height="64" viewBox="0 0 64 64" fill="none" xmlns="http://www.w3.org/2000/svg">
<g clip-path="url(#clip0_408_56)">
<path d="M47.1582 14.4283C47.1582 13.8368 47.4684 13.2886 47.9757 12.9842L61.4494 4.89891C62.5721 4.22529 64.0003 5.03389 64.0003 6.34306V20.2103C64.0003 21.1405 63.2461 21.8945 62.3161 21.8945H48.8424C47.9124 21.8945 47.1582 21.1405 47.1582 20.2103V14.4283Z" fill="#455FE9"/>
<path fill-rule="evenodd" clip-rule="evenodd" d="M24.3966 26.4593C23.8893 26.7637 23.5789 27.3118 23.5789 27.9034V43.7921L23.5789 45.4751L23.5789 45.4763L23.5789 48.0001C23.5789 48.9301 22.8249 49.6001 21.8947 49.6001H18.5263C17.5962 49.6001 16.8421 48.9301 16.8421 48.0001V45.4751V34.976C16.8421 33.6669 15.4139 32.8583 14.2913 33.5319L0.817607 41.6171C0.310362 41.9216 0 42.4696 0 43.0615V60.6342C0 61.5642 0.754048 62.3184 1.68421 62.3184H15.1579C16.0881 62.3184 16.8421 61.5642 16.8421 60.6342V58.9488V56.8314C16.8421 55.9011 17.5962 55.3376 18.5263 55.3376H21.8947C22.8249 55.3376 23.5789 55.9011 23.5789 56.8314V58.9488L23.5789 60.6342C23.5789 61.5642 24.333 62.3184 25.2632 62.3184H38.7368C39.6669 62.3184 40.4211 61.5642 40.4211 60.6342V45.4763V43.7921V19.8182C40.4211 18.509 38.9928 17.7004 37.8701 18.374L24.3966 26.4593Z" fill="#455FE9"/>
<path d="M47.1592 28.7999V60.7999C47.1592 61.6836 47.9132 62.3999 48.8434 62.3999H62.3171C63.2472 62.3999 64.0013 61.6836 64.0013 60.7999V28.7999C64.0013 27.9162 63.2472 27.1999 62.3171 27.1999H48.8434C47.9132 27.1999 47.1592 27.9162 47.1592 28.7999Z" fill="#455FE9"/>
</g>
<defs>

</defs>
</svg>
